<mxfile host="app.diagrams.net" modified="2020-11-28T16:25:16.064Z" agent="5.0 (X11)" etag="pkxV1eddo-s49koUmbef" version="13.10.4" type="github">
  <diagram id="R2lEEEUBdFMjLlhIrx00" name="Page-1">
    <mxGraphModel dx="3658" dy="497" grid="1" gridSize="10" guides="1" tooltips="1" connect="1" arrows="1" fold="1" page="1" pageScale="1" pageWidth="850" pageHeight="1100" math="0" shadow="0" extFonts="Permanent Marker^https://fonts.googleapis.com/css?family=Permanent+Marker">
      <root>
        <mxCell id="0" />
        <mxCell id="1" parent="0" />
        <mxCell id="dcQ1FEyAllWSrE3yn0ka-9" value="Livro" style="swimlane;childLayout=stackLayout;horizontal=1;startSize=30;horizontalStack=0;rounded=1;fontSize=14;fontStyle=0;strokeWidth=2;resizeParent=0;resizeLast=1;shadow=0;dashed=0;align=center;" parent="1" vertex="1">
          <mxGeometry x="-2050" y="580" width="290" height="220" as="geometry" />
        </mxCell>
        <mxCell id="dcQ1FEyAllWSrE3yn0ka-8" value="&#39;A legend of Rohan!&#39; cried Legolas. &#39;Nay, every Elf in Wilderland has sung songs of the old Onodrim and their long sorrow. Yet even among us they are only a memory. If I were to meet one still walking in this world, then indeed I should feel young again! But Treebeard: that is only a rendering of Fangorn into the Common Speech; yet you seem to speak of a person. Who is this Treebeard?&#39;" style="text;html=1;strokeColor=none;fillColor=none;align=center;verticalAlign=middle;whiteSpace=wrap;rounded=0;fontFamily=Courier New;" parent="dcQ1FEyAllWSrE3yn0ka-9" vertex="1">
          <mxGeometry y="30" width="290" height="190" as="geometry" />
        </mxCell>
        <mxCell id="dcQ1FEyAllWSrE3yn0ka-12" value="Lista de entidades" style="swimlane;childLayout=stackLayout;horizontal=1;startSize=30;horizontalStack=0;rounded=1;fontSize=14;fontStyle=0;strokeWidth=2;resizeParent=0;resizeLast=1;shadow=0;dashed=0;align=center;" parent="1" vertex="1">
          <mxGeometry x="-1440" y="610" width="180" height="120" as="geometry" />
        </mxCell>
        <mxCell id="dcQ1FEyAllWSrE3yn0ka-13" value="Rohan,Legolas, Onodrim,Treebeard, Fangorn" style="text;html=1;strokeColor=none;fillColor=none;align=center;verticalAlign=middle;whiteSpace=wrap;rounded=0;fontFamily=Courier New;" parent="dcQ1FEyAllWSrE3yn0ka-12" vertex="1">
          <mxGeometry y="30" width="180" height="90" as="geometry" />
        </mxCell>
        <mxCell id="dcQ1FEyAllWSrE3yn0ka-20" value="common_words" style="swimlane;childLayout=stackLayout;horizontal=1;startSize=30;horizontalStack=0;rounded=1;fontSize=14;fontStyle=0;strokeWidth=2;resizeParent=0;resizeLast=1;shadow=0;dashed=0;align=center;" parent="1" vertex="1">
          <mxGeometry x="-1700" y="670" width="210" height="110" as="geometry" />
        </mxCell>
        <mxCell id="dcQ1FEyAllWSrE3yn0ka-22" value="&lt;div&gt;...,&lt;/div&gt;&lt;div&gt;&quot;lost&quot;, &quot;collector&quot;, &quot;extremely&quot;, &quot;huh&quot;, &quot;contest&quot;, &quot;crisis&quot;, &quot;morning&quot;, &quot;available&quot;,&lt;/div&gt;&lt;div&gt;...&lt;br&gt;&lt;/div&gt;" style="text;html=1;strokeColor=none;fillColor=none;align=center;verticalAlign=middle;whiteSpace=wrap;rounded=0;fontFamily=Courier New;" parent="dcQ1FEyAllWSrE3yn0ka-20" vertex="1">
          <mxGeometry y="30" width="210" height="80" as="geometry" />
        </mxCell>
        <mxCell id="dcQ1FEyAllWSrE3yn0ka-25" style="edgeStyle=orthogonalEdgeStyle;rounded=0;orthogonalLoop=1;jettySize=auto;html=1;entryX=0;entryY=0.25;entryDx=0;entryDy=0;fontFamily=Courier New;exitX=1;exitY=0.25;exitDx=0;exitDy=0;" parent="1" source="dcQ1FEyAllWSrE3yn0ka-8" target="dcQ1FEyAllWSrE3yn0ka-13" edge="1">
          <mxGeometry relative="1" as="geometry">
            <Array as="points">
              <mxPoint x="-1760" y="663" />
              <mxPoint x="-1460" y="663" />
            </Array>
          </mxGeometry>
        </mxCell>
      </root>
    </mxGraphModel>
  </diagram>
</mxfile>
